# NARIS procedural blockout; meters; Z up
o NARIS-W04-ENV-PILLAR-1001
v -0.6 -0.6 0.0
v 0.6 -0.6 0.0
v 0.6 0.6 0.0
v -0.6 0.6 0.0
v -0.6 -0.6 0.3
v 0.6 -0.6 0.3
v 0.6 0.6 0.3
v -0.6 0.6 0.3
v 0.37 0.0 0.3
v 0.283436 0.237831 0.3
v 0.06425 0.364379 0.3
v -0.185 0.320429 0.3
v -0.347686 0.126547 0.3
v -0.347686 -0.126547 0.3
v -0.185 -0.320429 0.3
v 0.06425 -0.364379 0.3
v 0.283436 -0.237831 0.3
v 0.37 0.0 2.65
v 0.283436 0.237831 2.65
v 0.06425 0.364379 2.65
v -0.185 0.320429 2.65
v -0.347686 0.126547 2.65
v -0.347686 -0.126547 2.65
v -0.185 -0.320429 2.65
v 0.06425 -0.364379 2.65
v 0.283436 -0.237831 2.65
v -0.6 -0.6 2.65
v 0.6 -0.6 2.65
v 0.6 0.6 2.65
v -0.6 0.6 2.65
v -0.6 -0.6 2.85
v 0.6 -0.6 2.85
v 0.6 0.6 2.85
v -0.6 0.6 2.85
f 1 4 3 2
f 5 6 7 8
f 1 2 6 5
f 2 3 7 6
f 3 4 8 7
f 4 1 5 8
f 17 16 15 14 13 12 11 10 9
f 18 19 20 21 22 23 24 25 26
f 9 10 19 18
f 10 11 20 19
f 11 12 21 20
f 12 13 22 21
f 13 14 23 22
f 14 15 24 23
f 15 16 25 24
f 16 17 26 25
f 17 9 18 26
f 27 30 29 28
f 31 32 33 34
f 27 28 32 31
f 28 29 33 32
f 29 30 34 33
f 30 27 31 34
