# NARIS procedural blockout; meters; Z up
o NARIS-W04-ENV-CRYSTAL-1004
v 0.58 0.0 0
v 0.444306 0.372817 0
v 0.100716 0.571188 0
v -0.29 0.502295 0
v -0.545022 0.198372 0
v -0.545022 -0.198372 0
v -0.29 -0.502295 0
v 0.100716 -0.571188 0
v 0.444306 -0.372817 0
v 0.464 0.0 2.38
v 0.355445 0.298253 2.38
v 0.080573 0.456951 2.38
v -0.232 0.401836 2.38
v -0.436017 0.158697 2.38
v -0.436017 -0.158697 2.38
v -0.232 -0.401836 2.38
v 0.080573 -0.456951 2.38
v 0.355445 -0.298253 2.38
v 0.464 0.0 2.38
v 0.355445 0.298253 2.38
v 0.080573 0.456951 2.38
v -0.232 0.401836 2.38
v -0.436017 0.158697 2.38
v -0.436017 -0.158697 2.38
v -0.232 -0.401836 2.38
v 0.080573 -0.456951 2.38
v 0.355445 -0.298253 2.38
v 0.015 0.0 3.4
v 0.011491 0.009642 3.4
v 0.002605 0.014772 3.4
v -0.0075 0.01299 3.4
v -0.014095 0.00513 3.4
v -0.014095 -0.00513 3.4
v -0.0075 -0.01299 3.4
v 0.002605 -0.014772 3.4
v 0.011491 -0.009642 3.4
f 9 8 7 6 5 4 3 2 1
f 10 11 12 13 14 15 16 17 18
f 1 2 11 10
f 2 3 12 11
f 3 4 13 12
f 4 5 14 13
f 5 6 15 14
f 6 7 16 15
f 7 8 17 16
f 8 9 18 17
f 9 1 10 18
f 27 26 25 24 23 22 21 20 19
f 28 29 30 31 32 33 34 35 36
f 19 20 29 28
f 20 21 30 29
f 21 22 31 30
f 22 23 32 31
f 23 24 33 32
f 24 25 34 33
f 25 26 35 34
f 26 27 36 35
f 27 19 28 36
