# NARIS procedural blockout; meters; Z up
o NARIS-W04-ENV-TOWER-1001
v 1.2 0.0 0
v 0.919253 0.771345 0
v 0.208378 1.181769 0
v -0.6 1.03923 0
v -1.127631 0.410424 0
v -1.127631 -0.410424 0
v -0.6 -1.03923 0
v 0.208378 -1.181769 0
v 0.919253 -0.771345 0
v 1.2 0.0 2.35
v 0.919253 0.771345 2.35
v 0.208378 1.181769 2.35
v -0.6 1.03923 2.35
v -1.127631 0.410424 2.35
v -1.127631 -0.410424 2.35
v -0.6 -1.03923 2.35
v 0.208378 -1.181769 2.35
v 0.919253 -0.771345 2.35
v 1.025 -0.175 2.35
v 1.375 -0.175 2.35
v 1.375 0.175 2.35
v 1.025 0.175 2.35
v 1.025 -0.175 2.75
v 1.375 -0.175 2.75
v 1.375 0.175 2.75
v 1.025 0.175 2.75
v 0.19582 0.966268 2.35
v 0.54582 0.966268 2.35
v 0.54582 1.316268 2.35
v 0.19582 1.316268 2.35
v 0.19582 0.966268 2.75
v 0.54582 0.966268 2.75
v 0.54582 1.316268 2.75
v 0.19582 1.316268 2.75
v -1.14582 0.530342 2.35
v -0.79582 0.530342 2.35
v -0.79582 0.880342 2.35
v -1.14582 0.880342 2.35
v -1.14582 0.530342 2.75
v -0.79582 0.530342 2.75
v -0.79582 0.880342 2.75
v -1.14582 0.880342 2.75
v -1.14582 -0.880342 2.35
v -0.79582 -0.880342 2.35
v -0.79582 -0.530342 2.35
v -1.14582 -0.530342 2.35
v -1.14582 -0.880342 2.75
v -0.79582 -0.880342 2.75
v -0.79582 -0.530342 2.75
v -1.14582 -0.530342 2.75
v 0.19582 -1.316268 2.35
v 0.54582 -1.316268 2.35
v 0.54582 -0.966268 2.35
v 0.19582 -0.966268 2.35
v 0.19582 -1.316268 2.75
v 0.54582 -1.316268 2.75
v 0.54582 -0.966268 2.75
v 0.19582 -0.966268 2.75
f 9 8 7 6 5 4 3 2 1
f 10 11 12 13 14 15 16 17 18
f 1 2 11 10
f 2 3 12 11
f 3 4 13 12
f 4 5 14 13
f 5 6 15 14
f 6 7 16 15
f 7 8 17 16
f 8 9 18 17
f 9 1 10 18
f 19 22 21 20
f 23 24 25 26
f 19 20 24 23
f 20 21 25 24
f 21 22 26 25
f 22 19 23 26
f 27 30 29 28
f 31 32 33 34
f 27 28 32 31
f 28 29 33 32
f 29 30 34 33
f 30 27 31 34
f 35 38 37 36
f 39 40 41 42
f 35 36 40 39
f 36 37 41 40
f 37 38 42 41
f 38 35 39 42
f 43 46 45 44
f 47 48 49 50
f 43 44 48 47
f 44 45 49 48
f 45 46 50 49
f 46 43 47 50
f 51 54 53 52
f 55 56 57 58
f 51 52 56 55
f 52 53 57 56
f 53 54 58 57
f 54 51 55 58
