# NARIS procedural blockout; meters; Z up
o NARIS-W04-ENV-PILLAR-1005
v -0.6 -0.6 0.0
v 0.6 -0.6 0.0
v 0.6 0.6 0.0
v -0.6 0.6 0.0
v -0.6 -0.6 0.3
v 0.6 -0.6 0.3
v 0.6 0.6 0.3
v -0.6 0.6 0.3
v 0.65 0.0 0.3
v 0.575546 0.30207 0.3
v 0.369242 0.53494 0.3
v 0.078349 0.645261 0.3
v -0.230493 0.607761 0.3
v -0.486532 0.43103 0.3
v -0.631112 0.155555 0.3
v -0.631112 -0.155555 0.3
v -0.486532 -0.43103 0.3
v -0.230493 -0.607761 0.3
v 0.078349 -0.645261 0.3
v 0.369242 -0.53494 0.3
v 0.575546 -0.30207 0.3
v 0.65 0.0 4.05
v 0.575546 0.30207 4.05
v 0.369242 0.53494 4.05
v 0.078349 0.645261 4.05
v -0.230493 0.607761 4.05
v -0.486532 0.43103 4.05
v -0.631112 0.155555 4.05
v -0.631112 -0.155555 4.05
v -0.486532 -0.43103 4.05
v -0.230493 -0.607761 4.05
v 0.078349 -0.645261 4.05
v 0.369242 -0.53494 4.05
v 0.575546 -0.30207 4.05
v -0.6 -0.6 4.05
v 0.6 -0.6 4.05
v 0.6 0.6 4.05
v -0.6 0.6 4.05
v -0.6 -0.6 4.25
v 0.6 -0.6 4.25
v 0.6 0.6 4.25
v -0.6 0.6 4.25
f 1 4 3 2
f 5 6 7 8
f 1 2 6 5
f 2 3 7 6
f 3 4 8 7
f 4 1 5 8
f 21 20 19 18 17 16 15 14 13 12 11 10 9
f 22 23 24 25 26 27 28 29 30 31 32 33 34
f 9 10 23 22
f 10 11 24 23
f 11 12 25 24
f 12 13 26 25
f 13 14 27 26
f 14 15 28 27
f 15 16 29 28
f 16 17 30 29
f 17 18 31 30
f 18 19 32 31
f 19 20 33 32
f 20 21 34 33
f 21 9 22 34
f 35 38 37 36
f 39 40 41 42
f 35 36 40 39
f 36 37 41 40
f 37 38 42 41
f 38 35 39 42
