# NARIS procedural blockout; meters; Z up
o NARIS-W04-ENV-BRAZIER-1003
v 0.4 0.0 0
v 0.336501 0.216256 0
v 0.166166 0.363853 0
v -0.056926 0.395929 0
v -0.261944 0.3023 0
v -0.383797 0.112693 0
v -0.383797 -0.112693 0
v -0.261944 -0.3023 0
v -0.056926 -0.395929 0
v 0.166166 -0.363853 0
v 0.336501 -0.216256 0
v 0.18 0.0 0.7
v 0.151426 0.097315 0.7
v 0.074775 0.163734 0.7
v -0.025617 0.178168 0.7
v -0.117875 0.136035 0.7
v -0.172709 0.050712 0.7
v -0.172709 -0.050712 0.7
v -0.117875 -0.136035 0.7
v -0.025617 -0.178168 0.7
v 0.074775 -0.163734 0.7
v 0.151426 -0.097315 0.7
v 0.18 0.0 0.7
v 0.151426 0.097315 0.7
v 0.074775 0.163734 0.7
v -0.025617 0.178168 0.7
v -0.117875 0.136035 0.7
v -0.172709 0.050712 0.7
v -0.172709 -0.050712 0.7
v -0.117875 -0.136035 0.7
v -0.025617 -0.178168 0.7
v 0.074775 -0.163734 0.7
v 0.151426 -0.097315 0.7
v 0.5 0.0 1.0
v 0.420627 0.27032 1.0
v 0.207708 0.454816 1.0
v -0.071157 0.494911 1.0
v -0.32743 0.377875 1.0
v -0.479746 0.140866 1.0
v -0.479746 -0.140866 1.0
v -0.32743 -0.377875 1.0
v -0.071157 -0.494911 1.0
v 0.207708 -0.454816 1.0
v 0.420627 -0.27032 1.0
v 0.46 -0.04 0.995
v 0.54 -0.04 0.995
v 0.54 0.04 0.995
v 0.46 0.04 0.995
v 0.46 -0.04 1.245
v 0.54 -0.04 1.245
v 0.54 0.04 1.245
v 0.46 0.04 1.245
v 0.271745 0.350916 0.995
v 0.351745 0.350916 0.995
v 0.351745 0.430916 0.995
v 0.271745 0.430916 0.995
v 0.271745 0.350916 1.245
v 0.351745 0.350916 1.245
v 0.351745 0.430916 1.245
v 0.271745 0.430916 1.245
v -0.15126 0.447464 0.995
v -0.07126 0.447464 0.995
v -0.07126 0.527464 0.995
v -0.15126 0.527464 0.995
v -0.15126 0.447464 1.245
v -0.07126 0.447464 1.245
v -0.07126 0.527464 1.245
v -0.15126 0.527464 1.245
v -0.490484 0.176942 0.995
v -0.410484 0.176942 0.995
v -0.410484 0.256942 0.995
v -0.490484 0.256942 0.995
v -0.490484 0.176942 1.245
v -0.410484 0.176942 1.245
v -0.410484 0.256942 1.245
v -0.490484 0.256942 1.245
v -0.490484 -0.256942 0.995
v -0.410484 -0.256942 0.995
v -0.410484 -0.176942 0.995
v -0.490484 -0.176942 0.995
v -0.490484 -0.256942 1.245
v -0.410484 -0.256942 1.245
v -0.410484 -0.176942 1.245
v -0.490484 -0.176942 1.245
v -0.15126 -0.527464 0.995
v -0.07126 -0.527464 0.995
v -0.07126 -0.447464 0.995
v -0.15126 -0.447464 0.995
v -0.15126 -0.527464 1.245
v -0.07126 -0.527464 1.245
v -0.07126 -0.447464 1.245
v -0.15126 -0.447464 1.245
v 0.271745 -0.430916 0.995
v 0.351745 -0.430916 0.995
v 0.351745 -0.350916 0.995
v 0.271745 -0.350916 0.995
v 0.271745 -0.430916 1.245
v 0.351745 -0.430916 1.245
v 0.351745 -0.350916 1.245
v 0.271745 -0.350916 1.245
f 11 10 9 8 7 6 5 4 3 2 1
f 12 13 14 15 16 17 18 19 20 21 22
f 1 2 13 12
f 2 3 14 13
f 3 4 15 14
f 4 5 16 15
f 5 6 17 16
f 6 7 18 17
f 7 8 19 18
f 8 9 20 19
f 9 10 21 20
f 10 11 22 21
f 11 1 12 22
f 33 32 31 30 29 28 27 26 25 24 23
f 34 35 36 37 38 39 40 41 42 43 44
f 23 24 35 34
f 24 25 36 35
f 25 26 37 36
f 26 27 38 37
f 27 28 39 38
f 28 29 40 39
f 29 30 41 40
f 30 31 42 41
f 31 32 43 42
f 32 33 44 43
f 33 23 34 44
f 45 48 47 46
f 49 50 51 52
f 45 46 50 49
f 46 47 51 50
f 47 48 52 51
f 48 45 49 52
f 53 56 55 54
f 57 58 59 60
f 53 54 58 57
f 54 55 59 58
f 55 56 60 59
f 56 53 57 60
f 61 64 63 62
f 65 66 67 68
f 61 62 66 65
f 62 63 67 66
f 63 64 68 67
f 64 61 65 68
f 69 72 71 70
f 73 74 75 76
f 69 70 74 73
f 70 71 75 74
f 71 72 76 75
f 72 69 73 76
f 77 80 79 78
f 81 82 83 84
f 77 78 82 81
f 78 79 83 82
f 79 80 84 83
f 80 77 81 84
f 85 88 87 86
f 89 90 91 92
f 85 86 90 89
f 86 87 91 90
f 87 88 92 91
f 88 85 89 92
f 93 96 95 94
f 97 98 99 100
f 93 94 98 97
f 94 95 99 98
f 95 96 100 99
f 96 93 97 100
