# NARIS procedural blockout; meters; Z up
o NARIS-W04-ENV-STUMP-1005
v 1.17 0.0 0
v 1.01325 0.585 0
v 0.585 1.01325 0
v 0.0 1.17 0
v -0.585 1.01325 0
v -1.01325 0.585 0
v -1.17 0.0 0
v -1.01325 -0.585 0
v -0.585 -1.01325 0
v -0.0 -1.17 0
v 0.585 -1.01325 0
v 1.01325 -0.585 0
v 0.65 0.0 1.15
v 0.562917 0.325 1.15
v 0.325 0.562917 1.15
v 0.0 0.65 1.15
v -0.325 0.562917 1.15
v -0.562917 0.325 1.15
v -0.65 0.0 1.15
v -0.562917 -0.325 1.15
v -0.325 -0.562917 1.15
v -0.0 -0.65 1.15
v 0.325 -0.562917 1.15
v 0.562917 -0.325 1.15
f 12 11 10 9 8 7 6 5 4 3 2 1
f 13 14 15 16 17 18 19 20 21 22 23 24
f 1 2 14 13
f 2 3 15 14
f 3 4 16 15
f 4 5 17 16
f 5 6 18 17
f 6 7 19 18
f 7 8 20 19
f 8 9 21 20
f 9 10 22 21
f 10 11 23 22
f 11 12 24 23
f 12 1 13 24
