# NARIS procedural blockout; meters; Z up
o NARIS-W04-ENV-RUBBLE-1004
v 0.9 0.0 0
v 0.761803 0.190211 0
v 0.538197 0.117557 0
v 0.538197 -0.117557 0
v 0.761803 -0.190211 0
v 0.82 0.0 0.2
v 0.737082 0.114127 0.2
v 0.602918 0.070534 0.2
v 0.602918 -0.070534 0.2
v 0.737082 -0.114127 0.2
v -0.235703 0.47334 0
v -0.375703 0.715827 0
v -0.655703 0.715827 0
v -0.795703 0.47334 0
v -0.655703 0.230853 0
v -0.375703 0.230853 0
v -0.395703 0.47334 0.4
v -0.455703 0.577263 0.4
v -0.575703 0.577263 0.4
v -0.635703 0.47334 0.4
v -0.575703 0.369417 0.4
v -0.455703 0.369417 0.4
v 0.419855 -0.697436 0
v 0.284311 -0.415977 0
v -0.020253 -0.346462 0
v -0.264494 -0.541238 0
v -0.264494 -0.853634 0
v -0.020253 -1.04841 0
v 0.284311 -0.978896 0
v 0.179855 -0.697436 0.2
v 0.134673 -0.603617 0.2
v 0.033152 -0.580445 0.2
v -0.048262 -0.64537 0.2
v -0.048262 -0.749502 0.2
v 0.033152 -0.814428 0.2
v 0.134673 -0.791256 0.2
v 0.627511 0.554287 0
v 0.489314 0.744499 0
v 0.265707 0.671845 0
v 0.265707 0.43673 0
v 0.489314 0.364076 0
v 0.547511 0.554287 0.4
v 0.464593 0.668414 0.4
v 0.330429 0.624822 0.4
v 0.330429 0.483753 0.4
v 0.464593 0.440161 0.4
v -0.409764 -0.119271 0
v -0.549764 0.123216 0
v -0.829764 0.123216 0
v -0.969764 -0.119271 0
v -0.829764 -0.361758 0
v -0.549764 -0.361758 0
v -0.569764 -0.119271 0.2
v -0.629764 -0.015348 0.2
v -0.749764 -0.015348 0.2
v -0.809764 -0.119271 0.2
v -0.749764 -0.223194 0.2
v -0.629764 -0.223194 0.2
v 0.948812 -0.37855 0
v 0.813269 -0.09709 0
v 0.508705 -0.027576 0
v 0.264464 -0.222352 0
v 0.264464 -0.534748 0
v 0.508705 -0.729524 0
v 0.813269 -0.660009 0
v 0.708812 -0.37855 0.4
v 0.663631 -0.28473 0.4
v 0.56211 -0.261558 0.4
v 0.480696 -0.326484 0.4
v 0.480696 -0.430616 0.4
v 0.56211 -0.495541 0.4
v 0.663631 -0.47237 0.4
v 0.022187 0.67704 0
v -0.11601 0.867251 0
v -0.339617 0.794597 0
v -0.339617 0.559482 0
v -0.11601 0.486828 0
v -0.057813 0.67704 0.2
v -0.140731 0.791166 0.2
v -0.274895 0.747574 0.2
v -0.274895 0.606505 0.2
v -0.140731 0.562913 0.2
v -0.046816 -0.619024 0
v -0.186816 -0.376537 0
v -0.466816 -0.376537 0
v -0.606816 -0.619024 0
v -0.466816 -0.861512 0
v -0.186816 -0.861512 0
v -0.206816 -0.619024 0.4
v -0.266816 -0.515101 0.4
v -0.386816 -0.515101 0.4
v -0.446816 -0.619024 0.4
v -0.386816 -0.722947 0.4
v -0.266816 -0.722947 0.4
f 5 4 3 2 1
f 6 7 8 9 10
f 1 2 7 6
f 2 3 8 7
f 3 4 9 8
f 4 5 10 9
f 5 1 6 10
f 16 15 14 13 12 11
f 17 18 19 20 21 22
f 11 12 18 17
f 12 13 19 18
f 13 14 20 19
f 14 15 21 20
f 15 16 22 21
f 16 11 17 22
f 29 28 27 26 25 24 23
f 30 31 32 33 34 35 36
f 23 24 31 30
f 24 25 32 31
f 25 26 33 32
f 26 27 34 33
f 27 28 35 34
f 28 29 36 35
f 29 23 30 36
f 41 40 39 38 37
f 42 43 44 45 46
f 37 38 43 42
f 38 39 44 43
f 39 40 45 44
f 40 41 46 45
f 41 37 42 46
f 52 51 50 49 48 47
f 53 54 55 56 57 58
f 47 48 54 53
f 48 49 55 54
f 49 50 56 55
f 50 51 57 56
f 51 52 58 57
f 52 47 53 58
f 65 64 63 62 61 60 59
f 66 67 68 69 70 71 72
f 59 60 67 66
f 60 61 68 67
f 61 62 69 68
f 62 63 70 69
f 63 64 71 70
f 64 65 72 71
f 65 59 66 72
f 77 76 75 74 73
f 78 79 80 81 82
f 73 74 79 78
f 74 75 80 79
f 75 76 81 80
f 76 77 82 81
f 77 73 78 82
f 88 87 86 85 84 83
f 89 90 91 92 93 94
f 83 84 90 89
f 84 85 91 90
f 85 86 92 91
f 86 87 93 92
f 87 88 94 93
f 88 83 89 94
