# NARIS procedural blockout; meters; Z up
o NARIS-W04-ENV-CRYSTAL-1002
v 0.44 0.0 0
v 0.274336 0.344006 0
v -0.097909 0.428968 0
v -0.396426 0.190909 0
v -0.396426 -0.190909 0
v -0.097909 -0.428968 0
v 0.274336 -0.344006 0
v 0.352 0.0 1.89
v 0.219468 0.275205 1.89
v -0.078327 0.343175 1.89
v -0.317141 0.152727 1.89
v -0.317141 -0.152727 1.89
v -0.078327 -0.343175 1.89
v 0.219468 -0.275205 1.89
v 0.352 0.0 1.89
v 0.219468 0.275205 1.89
v -0.078327 0.343175 1.89
v -0.317141 0.152727 1.89
v -0.317141 -0.152727 1.89
v -0.078327 -0.343175 1.89
v 0.219468 -0.275205 1.89
v 0.015 0.0 2.7
v 0.009352 0.011727 2.7
v -0.003338 0.014624 2.7
v -0.013515 0.006508 2.7
v -0.013515 -0.006508 2.7
v -0.003338 -0.014624 2.7
v 0.009352 -0.011727 2.7
f 7 6 5 4 3 2 1
f 8 9 10 11 12 13 14
f 1 2 9 8
f 2 3 10 9
f 3 4 11 10
f 4 5 12 11
f 5 6 13 12
f 6 7 14 13
f 7 1 8 14
f 21 20 19 18 17 16 15
f 22 23 24 25 26 27 28
f 15 16 23 22
f 16 17 24 23
f 17 18 25 24
f 18 19 26 25
f 19 20 27 26
f 20 21 28 27
f 21 15 22 28
