# NARIS procedural blockout; meters; Z up
o NARIS-W04-ENV-OBELISK-1005
v -0.6 -0.6 0.0
v 0.6 -0.6 0.0
v 0.6 0.6 0.0
v -0.6 0.6 0.0
v -0.6 -0.6 0.3
v 0.6 -0.6 0.3
v 0.6 0.6 0.3
v -0.6 0.6 0.3
v 0.65 0.0 0.3
v 0.575546 0.30207 0.3
v 0.369242 0.53494 0.3
v 0.078349 0.645261 0.3
v -0.230493 0.607761 0.3
v -0.486532 0.43103 0.3
v -0.631112 0.155555 0.3
v -0.631112 -0.155555 0.3
v -0.486532 -0.43103 0.3
v -0.230493 -0.607761 0.3
v 0.078349 -0.645261 0.3
v 0.369242 -0.53494 0.3
v 0.575546 -0.30207 0.3
v 0.06 0.0 4.05
v 0.053127 0.027883 4.05
v 0.034084 0.049379 4.05
v 0.007232 0.059563 4.05
v -0.021276 0.056101 4.05
v -0.044911 0.039787 4.05
v -0.058257 0.014359 4.05
v -0.058257 -0.014359 4.05
v -0.044911 -0.039787 4.05
v -0.021276 -0.056101 4.05
v 0.007232 -0.059563 4.05
v 0.034084 -0.049379 4.05
v 0.053127 -0.027883 4.05
f 1 4 3 2
f 5 6 7 8
f 1 2 6 5
f 2 3 7 6
f 3 4 8 7
f 4 1 5 8
f 21 20 19 18 17 16 15 14 13 12 11 10 9
f 22 23 24 25 26 27 28 29 30 31 32 33 34
f 9 10 23 22
f 10 11 24 23
f 11 12 25 24
f 12 13 26 25
f 13 14 27 26
f 14 15 28 27
f 15 16 29 28
f 16 17 30 29
f 17 18 31 30
f 18 19 32 31
f 19 20 33 32
f 20 21 34 33
f 21 9 22 34
