# NARIS procedural blockout; meters; Z up
o NARIS-W04-ENV-ALTAR-1001
v -0.99 -0.35 0.0
v -0.69 -0.35 0.0
v -0.69 0.35 0.0
v -0.99 0.35 0.0
v -0.99 -0.35 0.8
v -0.69 -0.35 0.8
v -0.69 0.35 0.8
v -0.99 0.35 0.8
v 0.69 -0.35 0.0
v 0.99 -0.35 0.0
v 0.99 0.35 0.0
v 0.69 0.35 0.0
v 0.69 -0.35 0.8
v 0.99 -0.35 0.8
v 0.99 0.35 0.8
v 0.69 0.35 0.8
v -1.2 -0.5 0.8
v 1.2 -0.5 0.8
v 1.2 0.5 0.8
v -1.2 0.5 0.8
v -1.2 -0.5 1.0
v 1.2 -0.5 1.0
v 1.2 0.5 1.0
v -1.2 0.5 1.0
v 0.3 0.0 1
v 0.187047 0.234549 1
v -0.066756 0.292478 1
v -0.270291 0.130165 1
v -0.270291 -0.130165 1
v -0.066756 -0.292478 1
v 0.187047 -0.234549 1
v 0.1 0.0 1.35
v 0.062349 0.078183 1.35
v -0.022252 0.097493 1.35
v -0.090097 0.043388 1.35
v -0.090097 -0.043388 1.35
v -0.022252 -0.097493 1.35
v 0.062349 -0.078183 1.35
f 1 4 3 2
f 5 6 7 8
f 1 2 6 5
f 2 3 7 6
f 3 4 8 7
f 4 1 5 8
f 9 12 11 10
f 13 14 15 16
f 9 10 14 13
f 10 11 15 14
f 11 12 16 15
f 12 9 13 16
f 17 20 19 18
f 21 22 23 24
f 17 18 22 21
f 18 19 23 22
f 19 20 24 23
f 20 17 21 24
f 31 30 29 28 27 26 25
f 32 33 34 35 36 37 38
f 25 26 33 32
f 26 27 34 33
f 27 28 35 34
f 28 29 36 35
f 29 30 37 36
f 30 31 38 37
f 31 25 32 38
