# NARIS procedural blockout; meters; Z up
o NARIS-W04-ENV-STUMP-1002
v 0.792 0.0 0
v 0.606707 0.509088 0
v 0.137529 0.779968 0
v -0.396 0.685892 0
v -0.744237 0.27088 0
v -0.744237 -0.27088 0
v -0.396 -0.685892 0
v 0.137529 -0.779968 0
v 0.606707 -0.509088 0
v 0.44 0.0 0.7
v 0.33706 0.282827 0.7
v 0.076405 0.433315 0.7
v -0.22 0.381051 0.7
v -0.413465 0.150489 0.7
v -0.413465 -0.150489 0.7
v -0.22 -0.381051 0.7
v 0.076405 -0.433315 0.7
v 0.33706 -0.282827 0.7
f 9 8 7 6 5 4 3 2 1
f 10 11 12 13 14 15 16 17 18
f 1 2 11 10
f 2 3 12 11
f 3 4 13 12
f 4 5 14 13
f 5 6 15 14
f 6 7 16 15
f 7 8 17 16
f 8 9 18 17
f 9 1 10 18
