# NARIS procedural blockout; meters; Z up
o NARIS-W04-ENV-TOWER-1003
v 1.6 0.0 0
v 1.346006 0.865025 0
v 0.664664 1.455411 0
v -0.227704 1.583714 0
v -1.047777 1.209199 0
v -1.535189 0.450772 0
v -1.535189 -0.450772 0
v -1.047777 -1.209199 0
v -0.227704 -1.583714 0
v 0.664664 -1.455411 0
v 1.346006 -0.865025 0
v 1.6 0.0 3.05
v 1.346006 0.865025 3.05
v 0.664664 1.455411 3.05
v -0.227704 1.583714 3.05
v -1.047777 1.209199 3.05
v -1.535189 0.450772 3.05
v -1.535189 -0.450772 3.05
v -1.047777 -1.209199 3.05
v -0.227704 -1.583714 3.05
v 0.664664 -1.455411 3.05
v 1.346006 -0.865025 3.05
v 1.425 -0.175 3.05
v 1.775 -0.175 3.05
v 1.775 0.175 3.05
v 1.425 0.175 3.05
v 1.425 -0.175 3.45
v 1.775 -0.175 3.45
v 1.775 0.175 3.45
v 1.425 0.175 3.45
v 0.822584 1.07593 3.05
v 1.172584 1.07593 3.05
v 1.172584 1.42593 3.05
v 0.822584 1.42593 3.05
v 0.822584 1.07593 3.45
v 1.172584 1.07593 3.45
v 1.172584 1.42593 3.45
v 0.822584 1.42593 3.45
v -0.531033 1.384885 3.05
v -0.181033 1.384885 3.05
v -0.181033 1.734885 3.05
v -0.531033 1.734885 3.05
v -0.531033 1.384885 3.45
v -0.181033 1.384885 3.45
v -0.181033 1.734885 3.45
v -0.531033 1.734885 3.45
v -1.61655 0.519214 3.05
v -1.26655 0.519214 3.05
v -1.26655 0.869214 3.05
v -1.61655 0.869214 3.05
v -1.61655 0.519214 3.45
v -1.26655 0.519214 3.45
v -1.26655 0.869214 3.45
v -1.61655 0.869214 3.45
v -1.61655 -0.869214 3.05
v -1.26655 -0.869214 3.05
v -1.26655 -0.519214 3.05
v -1.61655 -0.519214 3.05
v -1.61655 -0.869214 3.45
v -1.26655 -0.869214 3.45
v -1.26655 -0.519214 3.45
v -1.61655 -0.519214 3.45
v -0.531033 -1.734885 3.05
v -0.181033 -1.734885 3.05
v -0.181033 -1.384885 3.05
v -0.531033 -1.384885 3.05
v -0.531033 -1.734885 3.45
v -0.181033 -1.734885 3.45
v -0.181033 -1.384885 3.45
v -0.531033 -1.384885 3.45
v 0.822584 -1.42593 3.05
v 1.172584 -1.42593 3.05
v 1.172584 -1.07593 3.05
v 0.822584 -1.07593 3.05
v 0.822584 -1.42593 3.45
v 1.172584 -1.42593 3.45
v 1.172584 -1.07593 3.45
v 0.822584 -1.07593 3.45
f 11 10 9 8 7 6 5 4 3 2 1
f 12 13 14 15 16 17 18 19 20 21 22
f 1 2 13 12
f 2 3 14 13
f 3 4 15 14
f 4 5 16 15
f 5 6 17 16
f 6 7 18 17
f 7 8 19 18
f 8 9 20 19
f 9 10 21 20
f 10 11 22 21
f 11 1 12 22
f 23 26 25 24
f 27 28 29 30
f 23 24 28 27
f 24 25 29 28
f 25 26 30 29
f 26 23 27 30
f 31 34 33 32
f 35 36 37 38
f 31 32 36 35
f 32 33 37 36
f 33 34 38 37
f 34 31 35 38
f 39 42 41 40
f 43 44 45 46
f 39 40 44 43
f 40 41 45 44
f 41 42 46 45
f 42 39 43 46
f 47 50 49 48
f 51 52 53 54
f 47 48 52 51
f 48 49 53 52
f 49 50 54 53
f 50 47 51 54
f 55 58 57 56
f 59 60 61 62
f 55 56 60 59
f 56 57 61 60
f 57 58 62 61
f 58 55 59 62
f 63 66 65 64
f 67 68 69 70
f 63 64 68 67
f 64 65 69 68
f 65 66 70 69
f 66 63 67 70
f 71 74 73 72
f 75 76 77 78
f 71 72 76 75
f 72 73 77 76
f 73 74 78 77
f 74 71 75 78
