# NARIS procedural blockout; meters; Z up
o NARIS-W04-ENV-BRAZIER-1005
v 0.4 0.0 0
v 0.354182 0.185889 0
v 0.227226 0.329194 0
v 0.048215 0.397084 0
v -0.141842 0.374006 0
v -0.299404 0.265249 0
v -0.388377 0.095726 0
v -0.388377 -0.095726 0
v -0.299404 -0.265249 0
v -0.141842 -0.374006 0
v 0.048215 -0.397084 0
v 0.227226 -0.329194 0
v 0.354182 -0.185889 0
v 0.18 0.0 0.7
v 0.159382 0.08365 0.7
v 0.102252 0.148137 0.7
v 0.021697 0.178688 0.7
v -0.063829 0.168303 0.7
v -0.134732 0.119362 0.7
v -0.17477 0.043077 0.7
v -0.17477 -0.043077 0.7
v -0.134732 -0.119362 0.7
v -0.063829 -0.168303 0.7
v 0.021697 -0.178688 0.7
v 0.102252 -0.148137 0.7
v 0.159382 -0.08365 0.7
v 0.18 0.0 0.7
v 0.159382 0.08365 0.7
v 0.102252 0.148137 0.7
v 0.021697 0.178688 0.7
v -0.063829 0.168303 0.7
v -0.134732 0.119362 0.7
v -0.17477 0.043077 0.7
v -0.17477 -0.043077 0.7
v -0.134732 -0.119362 0.7
v -0.063829 -0.168303 0.7
v 0.021697 -0.178688 0.7
v 0.102252 -0.148137 0.7
v 0.159382 -0.08365 0.7
v 0.5 0.0 1.0
v 0.442728 0.232362 1.0
v 0.284032 0.411492 1.0
v 0.060268 0.496354 1.0
v -0.177302 0.467508 1.0
v -0.374255 0.331561 1.0
v -0.485471 0.119658 1.0
v -0.485471 -0.119658 1.0
v -0.374255 -0.331561 1.0
v -0.177302 -0.467508 1.0
v 0.060268 -0.496354 1.0
v 0.284032 -0.411492 1.0
v 0.442728 -0.232362 1.0
v 0.46 -0.04 0.995
v 0.54 -0.04 0.995
v 0.54 0.04 0.995
v 0.46 0.04 0.995
v 0.46 -0.04 1.245
v 0.54 -0.04 1.245
v 0.54 0.04 1.245
v 0.46 0.04 1.245
v 0.343022 0.281394 0.995
v 0.423022 0.281394 0.995
v 0.423022 0.361394 0.995
v 0.343022 0.361394 0.995
v 0.343022 0.281394 1.245
v 0.423022 0.281394 1.245
v 0.423022 0.361394 1.245
v 0.343022 0.361394 1.245
v 0.046824 0.452404 0.995
v 0.126824 0.452404 0.995
v 0.126824 0.532404 0.995
v 0.046824 0.532404 0.995
v 0.046824 0.452404 1.245
v 0.126824 0.452404 1.245
v 0.126824 0.532404 1.245
v 0.046824 0.532404 1.245
v -0.29 0.393013 0.995
v -0.21 0.393013 0.995
v -0.21 0.473013 0.995
v -0.29 0.473013 0.995
v -0.29 0.393013 1.245
v -0.21 0.393013 1.245
v -0.21 0.473013 1.245
v -0.29 0.473013 1.245
v -0.509846 0.13101 0.995
v -0.429846 0.13101 0.995
v -0.429846 0.21101 0.995
v -0.509846 0.21101 0.995
v -0.509846 0.13101 1.245
v -0.429846 0.13101 1.245
v -0.429846 0.21101 1.245
v -0.509846 0.21101 1.245
v -0.509846 -0.21101 0.995
v -0.429846 -0.21101 0.995
v -0.429846 -0.13101 0.995
v -0.509846 -0.13101 0.995
v -0.509846 -0.21101 1.245
v -0.429846 -0.21101 1.245
v -0.429846 -0.13101 1.245
v -0.509846 -0.13101 1.245
v -0.29 -0.473013 0.995
v -0.21 -0.473013 0.995
v -0.21 -0.393013 0.995
v -0.29 -0.393013 0.995
v -0.29 -0.473013 1.245
v -0.21 -0.473013 1.245
v -0.21 -0.393013 1.245
v -0.29 -0.393013 1.245
v 0.046824 -0.532404 0.995
v 0.126824 -0.532404 0.995
v 0.126824 -0.452404 0.995
v 0.046824 -0.452404 0.995
v 0.046824 -0.532404 1.245
v 0.126824 -0.532404 1.245
v 0.126824 -0.452404 1.245
v 0.046824 -0.452404 1.245
v 0.343022 -0.361394 0.995
v 0.423022 -0.361394 0.995
v 0.423022 -0.281394 0.995
v 0.343022 -0.281394 0.995
v 0.343022 -0.361394 1.245
v 0.423022 -0.361394 1.245
v 0.423022 -0.281394 1.245
v 0.343022 -0.281394 1.245
f 13 12 11 10 9 8 7 6 5 4 3 2 1
f 14 15 16 17 18 19 20 21 22 23 24 25 26
f 1 2 15 14
f 2 3 16 15
f 3 4 17 16
f 4 5 18 17
f 5 6 19 18
f 6 7 20 19
f 7 8 21 20
f 8 9 22 21
f 9 10 23 22
f 10 11 24 23
f 11 12 25 24
f 12 13 26 25
f 13 1 14 26
f 39 38 37 36 35 34 33 32 31 30 29 28 27
f 40 41 42 43 44 45 46 47 48 49 50 51 52
f 27 28 41 40
f 28 29 42 41
f 29 30 43 42
f 30 31 44 43
f 31 32 45 44
f 32 33 46 45
f 33 34 47 46
f 34 35 48 47
f 35 36 49 48
f 36 37 50 49
f 37 38 51 50
f 38 39 52 51
f 39 27 40 52
f 53 56 55 54
f 57 58 59 60
f 53 54 58 57
f 54 55 59 58
f 55 56 60 59
f 56 53 57 60
f 61 64 63 62
f 65 66 67 68
f 61 62 66 65
f 62 63 67 66
f 63 64 68 67
f 64 61 65 68
f 69 72 71 70
f 73 74 75 76
f 69 70 74 73
f 70 71 75 74
f 71 72 76 75
f 72 69 73 76
f 77 80 79 78
f 81 82 83 84
f 77 78 82 81
f 78 79 83 82
f 79 80 84 83
f 80 77 81 84
f 85 88 87 86
f 89 90 91 92
f 85 86 90 89
f 86 87 91 90
f 87 88 92 91
f 88 85 89 92
f 93 96 95 94
f 97 98 99 100
f 93 94 98 97
f 94 95 99 98
f 95 96 100 99
f 96 93 97 100
f 101 104 103 102
f 105 106 107 108
f 101 102 106 105
f 102 103 107 106
f 103 104 108 107
f 104 101 105 108
f 109 112 111 110
f 113 114 115 116
f 109 110 114 113
f 110 111 115 114
f 111 112 116 115
f 112 109 113 116
f 117 120 119 118
f 121 122 123 124
f 117 118 122 121
f 118 119 123 122
f 119 120 124 123
f 120 117 121 124
