# NARIS procedural blockout; meters; Z up
o NARIS-W04-ENV-STUMP-1003
v 0.918 0.0 0
v 0.742678 0.539587 0
v 0.283678 0.87307 0
v -0.283678 0.87307 0
v -0.742678 0.539587 0
v -0.918 0.0 0
v -0.742678 -0.539587 0
v -0.283678 -0.87307 0
v 0.283678 -0.87307 0
v 0.742678 -0.539587 0
v 0.51 0.0 0.85
v 0.412599 0.29977 0.85
v 0.157599 0.485039 0.85
v -0.157599 0.485039 0.85
v -0.412599 0.29977 0.85
v -0.51 0.0 0.85
v -0.412599 -0.29977 0.85
v -0.157599 -0.485039 0.85
v 0.157599 -0.485039 0.85
v 0.412599 -0.29977 0.85
f 10 9 8 7 6 5 4 3 2 1
f 11 12 13 14 15 16 17 18 19 20
f 1 2 12 11
f 2 3 13 12
f 3 4 14 13
f 4 5 15 14
f 5 6 16 15
f 6 7 17 16
f 7 8 18 17
f 8 9 19 18
f 9 10 20 19
f 10 1 11 20
