# NARIS procedural blockout; meters; Z up
o NARIS-W04-ENV-TOWER-1005
v 2.0 0.0 0
v 1.770912 0.929446 0
v 1.136129 1.645968 0
v 0.241073 1.985418 0
v -0.70921 1.870032 0
v -1.497021 1.326245 0
v -1.941884 0.478631 0
v -1.941884 -0.478631 0
v -1.497021 -1.326245 0
v -0.70921 -1.870032 0
v 0.241073 -1.985418 0
v 1.136129 -1.645968 0
v 1.770912 -0.929446 0
v 2.0 0.0 3.75
v 1.770912 0.929446 3.75
v 1.136129 1.645968 3.75
v 0.241073 1.985418 3.75
v -0.70921 1.870032 3.75
v -1.497021 1.326245 3.75
v -1.941884 0.478631 3.75
v -1.941884 -0.478631 3.75
v -1.497021 -1.326245 3.75
v -0.70921 -1.870032 3.75
v 0.241073 -1.985418 3.75
v 1.136129 -1.645968 3.75
v 1.770912 -0.929446 3.75
v 1.825 -0.175 3.75
v 2.175 -0.175 3.75
v 2.175 0.175 3.75
v 1.825 0.175 3.75
v 1.825 -0.175 4.15
v 2.175 -0.175 4.15
v 2.175 0.175 4.15
v 1.825 0.175 4.15
v 1.357089 1.110575 3.75
v 1.707089 1.110575 3.75
v 1.707089 1.460575 3.75
v 1.357089 1.460575 3.75
v 1.357089 1.110575 4.15
v 1.707089 1.110575 4.15
v 1.707089 1.460575 4.15
v 1.357089 1.460575 4.15
v 0.172296 1.794616 3.75
v 0.522296 1.794616 3.75
v 0.522296 2.144616 3.75
v 0.172296 2.144616 3.75
v 0.172296 1.794616 4.15
v 0.522296 1.794616 4.15
v 0.522296 2.144616 4.15
v 0.172296 2.144616 4.15
v -1.175 1.557051 3.75
v -0.825 1.557051 3.75
v -0.825 1.907051 3.75
v -1.175 1.907051 3.75
v -1.175 1.557051 4.15
v -0.825 1.557051 4.15
v -0.825 1.907051 4.15
v -1.175 1.907051 4.15
v -2.054385 0.50904 3.75
v -1.704385 0.50904 3.75
v -1.704385 0.85904 3.75
v -2.054385 0.85904 3.75
v -2.054385 0.50904 4.15
v -1.704385 0.50904 4.15
v -1.704385 0.85904 4.15
v -2.054385 0.85904 4.15
v -2.054385 -0.85904 3.75
v -1.704385 -0.85904 3.75
v -1.704385 -0.50904 3.75
v -2.054385 -0.50904 3.75
v -2.054385 -0.85904 4.15
v -1.704385 -0.85904 4.15
v -1.704385 -0.50904 4.15
v -2.054385 -0.50904 4.15
v -1.175 -1.907051 3.75
v -0.825 -1.907051 3.75
v -0.825 -1.557051 3.75
v -1.175 -1.557051 3.75
v -1.175 -1.907051 4.15
v -0.825 -1.907051 4.15
v -0.825 -1.557051 4.15
v -1.175 -1.557051 4.15
v 0.172296 -2.144616 3.75
v 0.522296 -2.144616 3.75
v 0.522296 -1.794616 3.75
v 0.172296 -1.794616 3.75
v 0.172296 -2.144616 4.15
v 0.522296 -2.144616 4.15
v 0.522296 -1.794616 4.15
v 0.172296 -1.794616 4.15
v 1.357089 -1.460575 3.75
v 1.707089 -1.460575 3.75
v 1.707089 -1.110575 3.75
v 1.357089 -1.110575 3.75
v 1.357089 -1.460575 4.15
v 1.707089 -1.460575 4.15
v 1.707089 -1.110575 4.15
v 1.357089 -1.110575 4.15
f 13 12 11 10 9 8 7 6 5 4 3 2 1
f 14 15 16 17 18 19 20 21 22 23 24 25 26
f 1 2 15 14
f 2 3 16 15
f 3 4 17 16
f 4 5 18 17
f 5 6 19 18
f 6 7 20 19
f 7 8 21 20
f 8 9 22 21
f 9 10 23 22
f 10 11 24 23
f 11 12 25 24
f 12 13 26 25
f 13 1 14 26
f 27 30 29 28
f 31 32 33 34
f 27 28 32 31
f 28 29 33 32
f 29 30 34 33
f 30 27 31 34
f 35 38 37 36
f 39 40 41 42
f 35 36 40 39
f 36 37 41 40
f 37 38 42 41
f 38 35 39 42
f 43 46 45 44
f 47 48 49 50
f 43 44 48 47
f 44 45 49 48
f 45 46 50 49
f 46 43 47 50
f 51 54 53 52
f 55 56 57 58
f 51 52 56 55
f 52 53 57 56
f 53 54 58 57
f 54 51 55 58
f 59 62 61 60
f 63 64 65 66
f 59 60 64 63
f 60 61 65 64
f 61 62 66 65
f 62 59 63 66
f 67 70 69 68
f 71 72 73 74
f 67 68 72 71
f 68 69 73 72
f 69 70 74 73
f 70 67 71 74
f 75 78 77 76
f 79 80 81 82
f 75 76 80 79
f 76 77 81 80
f 77 78 82 81
f 78 75 79 82
f 83 86 85 84
f 87 88 89 90
f 83 84 88 87
f 84 85 89 88
f 85 86 90 89
f 86 83 87 90
f 91 94 93 92
f 95 96 97 98
f 91 92 96 95
f 92 93 97 96
f 93 94 98 97
f 94 91 95 98
