# NARIS procedural blockout; meters; Z up
o NARIS-W04-ENV-TREE-1003
v 0.35 0.0 0
v 0.247487 0.247487 0
v 0.0 0.35 0
v -0.247487 0.247487 0
v -0.35 0.0 0
v -0.247487 -0.247487 0
v -0.0 -0.35 0
v 0.247487 -0.247487 0
v 0.1 0.0 4.05
v 0.070711 0.070711 4.05
v 0.0 0.1 4.05
v -0.070711 0.070711 4.05
v -0.1 0.0 4.05
v -0.070711 -0.070711 4.05
v -0.0 -0.1 4.05
v 0.070711 -0.070711 4.05
v 0.0 -0.06 0.925
v 1.0 -0.06 0.925
v 1.0 0.06 0.925
v 0.0 0.06 0.925
v 0.0 -0.06 1.075
v 1.0 -0.06 1.075
v 1.0 0.06 1.075
v 0.0 0.06 1.075
v 1.0 0.0 1.0
v 0.95 0.086603 1.0
v 0.85 0.086603 1.0
v 0.8 0.0 1.0
v 0.85 -0.086603 1.0
v 0.95 -0.086603 1.0
v 0.93 0.0 1.6
v 0.915 0.025981 1.6
v 0.885 0.025981 1.6
v 0.87 0.0 1.6
v 0.885 -0.025981 1.6
v 0.915 -0.025981 1.6
v -1.0 -0.06 1.325
v 0.0 -0.06 1.325
v 0.0 0.06 1.325
v -1.0 0.06 1.325
v -1.0 -0.06 1.475
v 0.0 -0.06 1.475
v 0.0 0.06 1.475
v -1.0 0.06 1.475
v -0.8 0.0 1.4
v -0.85 0.086603 1.4
v -0.95 0.086603 1.4
v -1.0 0.0 1.4
v -0.95 -0.086603 1.4
v -0.85 -0.086603 1.4
v -0.87 0.0 2.0
v -0.885 0.025981 2.0
v -0.915 0.025981 2.0
v -0.93 0.0 2.0
v -0.915 -0.025981 2.0
v -0.885 -0.025981 2.0
v 0.0 -0.06 1.725
v 1.0 -0.06 1.725
v 1.0 0.06 1.725
v 0.0 0.06 1.725
v 0.0 -0.06 1.875
v 1.0 -0.06 1.875
v 1.0 0.06 1.875
v 0.0 0.06 1.875
v 1.0 0.0 1.8
v 0.95 0.086603 1.8
v 0.85 0.086603 1.8
v 0.8 0.0 1.8
v 0.85 -0.086603 1.8
v 0.95 -0.086603 1.8
v 0.93 0.0 2.4
v 0.915 0.025981 2.4
v 0.885 0.025981 2.4
v 0.87 0.0 2.4
v 0.885 -0.025981 2.4
v 0.915 -0.025981 2.4
v -1.0 -0.06 2.125
v 0.0 -0.06 2.125
v 0.0 0.06 2.125
v -1.0 0.06 2.125
v -1.0 -0.06 2.275
v 0.0 -0.06 2.275
v 0.0 0.06 2.275
v -1.0 0.06 2.275
v -0.8 0.0 2.2
v -0.85 0.086603 2.2
v -0.95 0.086603 2.2
v -1.0 0.0 2.2
v -0.95 -0.086603 2.2
v -0.85 -0.086603 2.2
v -0.87 0.0 2.8
v -0.885 0.025981 2.8
v -0.915 0.025981 2.8
v -0.93 0.0 2.8
v -0.915 -0.025981 2.8
v -0.885 -0.025981 2.8
v 0.0 -0.06 2.525
v 1.0 -0.06 2.525
v 1.0 0.06 2.525
v 0.0 0.06 2.525
v 0.0 -0.06 2.675
v 1.0 -0.06 2.675
v 1.0 0.06 2.675
v 0.0 0.06 2.675
v 1.0 0.0 2.6
v 0.95 0.086603 2.6
v 0.85 0.086603 2.6
v 0.8 0.0 2.6
v 0.85 -0.086603 2.6
v 0.95 -0.086603 2.6
v 0.93 0.0 3.2
v 0.915 0.025981 3.2
v 0.885 0.025981 3.2
v 0.87 0.0 3.2
v 0.885 -0.025981 3.2
v 0.915 -0.025981 3.2
f 8 7 6 5 4 3 2 1
f 9 10 11 12 13 14 15 16
f 1 2 10 9
f 2 3 11 10
f 3 4 12 11
f 4 5 13 12
f 5 6 14 13
f 6 7 15 14
f 7 8 16 15
f 8 1 9 16
f 17 20 19 18
f 21 22 23 24
f 17 18 22 21
f 18 19 23 22
f 19 20 24 23
f 20 17 21 24
f 30 29 28 27 26 25
f 31 32 33 34 35 36
f 25 26 32 31
f 26 27 33 32
f 27 28 34 33
f 28 29 35 34
f 29 30 36 35
f 30 25 31 36
f 37 40 39 38
f 41 42 43 44
f 37 38 42 41
f 38 39 43 42
f 39 40 44 43
f 40 37 41 44
f 50 49 48 47 46 45
f 51 52 53 54 55 56
f 45 46 52 51
f 46 47 53 52
f 47 48 54 53
f 48 49 55 54
f 49 50 56 55
f 50 45 51 56
f 57 60 59 58
f 61 62 63 64
f 57 58 62 61
f 58 59 63 62
f 59 60 64 63
f 60 57 61 64
f 70 69 68 67 66 65
f 71 72 73 74 75 76
f 65 66 72 71
f 66 67 73 72
f 67 68 74 73
f 68 69 75 74
f 69 70 76 75
f 70 65 71 76
f 77 80 79 78
f 81 82 83 84
f 77 78 82 81
f 78 79 83 82
f 79 80 84 83
f 80 77 81 84
f 90 89 88 87 86 85
f 91 92 93 94 95 96
f 85 86 92 91
f 86 87 93 92
f 87 88 94 93
f 88 89 95 94
f 89 90 96 95
f 90 85 91 96
f 97 100 99 98
f 101 102 103 104
f 97 98 102 101
f 98 99 103 102
f 99 100 104 103
f 100 97 101 104
f 110 109 108 107 106 105
f 111 112 113 114 115 116
f 105 106 112 111
f 106 107 113 112
f 107 108 114 113
f 108 109 115 114
f 109 110 116 115
f 110 105 111 116
