# NARIS procedural blockout; meters; Z up
o NARIS-W04-ENV-OBELISK-1004
v -0.6 -0.6 0.0
v 0.6 -0.6 0.0
v 0.6 0.6 0.0
v -0.6 0.6 0.0
v -0.6 -0.6 0.3
v 0.6 -0.6 0.3
v 0.6 0.6 0.3
v -0.6 0.6 0.3
v 0.58 0.0 0.3
v 0.502295 0.29 0.3
v 0.29 0.502295 0.3
v 0.0 0.58 0.3
v -0.29 0.502295 0.3
v -0.502295 0.29 0.3
v -0.58 0.0 0.3
v -0.502295 -0.29 0.3
v -0.29 -0.502295 0.3
v -0.0 -0.58 0.3
v 0.29 -0.502295 0.3
v 0.502295 -0.29 0.3
v 0.06 0.0 3.7
v 0.051962 0.03 3.7
v 0.03 0.051962 3.7
v 0.0 0.06 3.7
v -0.03 0.051962 3.7
v -0.051962 0.03 3.7
v -0.06 0.0 3.7
v -0.051962 -0.03 3.7
v -0.03 -0.051962 3.7
v -0.0 -0.06 3.7
v 0.03 -0.051962 3.7
v 0.051962 -0.03 3.7
f 1 4 3 2
f 5 6 7 8
f 1 2 6 5
f 2 3 7 6
f 3 4 8 7
f 4 1 5 8
f 20 19 18 17 16 15 14 13 12 11 10 9
f 21 22 23 24 25 26 27 28 29 30 31 32
f 9 10 22 21
f 10 11 23 22
f 11 12 24 23
f 12 13 25 24
f 13 14 26 25
f 14 15 27 26
f 15 16 28 27
f 16 17 29 28
f 17 18 30 29
f 18 19 31 30
f 19 20 32 31
f 20 9 21 32
