# NARIS procedural blockout; meters; Z up
o NARIS-W04-ENV-CRYSTAL-1001
v 0.37 0.0 0
v 0.185 0.320429 0
v -0.185 0.320429 0
v -0.37 0.0 0
v -0.185 -0.320429 0
v 0.185 -0.320429 0
v 0.296 0.0 1.645
v 0.148 0.256344 1.645
v -0.148 0.256344 1.645
v -0.296 0.0 1.645
v -0.148 -0.256344 1.645
v 0.148 -0.256344 1.645
v 0.296 0.0 1.645
v 0.148 0.256344 1.645
v -0.148 0.256344 1.645
v -0.296 0.0 1.645
v -0.148 -0.256344 1.645
v 0.148 -0.256344 1.645
v 0.015 0.0 2.35
v 0.0075 0.01299 2.35
v -0.0075 0.01299 2.35
v -0.015 0.0 2.35
v -0.0075 -0.01299 2.35
v 0.0075 -0.01299 2.35
f 6 5 4 3 2 1
f 7 8 9 10 11 12
f 1 2 8 7
f 2 3 9 8
f 3 4 10 9
f 4 5 11 10
f 5 6 12 11
f 6 1 7 12
f 18 17 16 15 14 13
f 19 20 21 22 23 24
f 13 14 20 19
f 14 15 21 20
f 15 16 22 21
f 16 17 23 22
f 17 18 24 23
f 18 13 19 24
