# NARIS procedural blockout; meters; Z up
o NARIS-W04-ENV-BRAZIER-1001
v 0.4 0.0 0
v 0.306418 0.257115 0
v 0.069459 0.393923 0
v -0.2 0.34641 0
v -0.375877 0.136808 0
v -0.375877 -0.136808 0
v -0.2 -0.34641 0
v 0.069459 -0.393923 0
v 0.306418 -0.257115 0
v 0.18 0.0 0.7
v 0.137888 0.115702 0.7
v 0.031257 0.177265 0.7
v -0.09 0.155885 0.7
v -0.169145 0.061564 0.7
v -0.169145 -0.061564 0.7
v -0.09 -0.155885 0.7
v 0.031257 -0.177265 0.7
v 0.137888 -0.115702 0.7
v 0.18 0.0 0.7
v 0.137888 0.115702 0.7
v 0.031257 0.177265 0.7
v -0.09 0.155885 0.7
v -0.169145 0.061564 0.7
v -0.169145 -0.061564 0.7
v -0.09 -0.155885 0.7
v 0.031257 -0.177265 0.7
v 0.137888 -0.115702 0.7
v 0.5 0.0 1.0
v 0.383022 0.321394 1.0
v 0.086824 0.492404 1.0
v -0.25 0.433013 1.0
v -0.469846 0.17101 1.0
v -0.469846 -0.17101 1.0
v -0.25 -0.433013 1.0
v 0.086824 -0.492404 1.0
v 0.383022 -0.321394 1.0
v 0.46 -0.04 0.995
v 0.54 -0.04 0.995
v 0.54 0.04 0.995
v 0.46 0.04 0.995
v 0.46 -0.04 1.245
v 0.54 -0.04 1.245
v 0.54 0.04 1.245
v 0.46 0.04 1.245
v 0.114508 0.435528 0.995
v 0.194508 0.435528 0.995
v 0.194508 0.515528 0.995
v 0.114508 0.515528 0.995
v 0.114508 0.435528 1.245
v 0.194508 0.435528 1.245
v 0.194508 0.515528 1.245
v 0.114508 0.515528 1.245
v -0.444508 0.253893 0.995
v -0.364508 0.253893 0.995
v -0.364508 0.333893 0.995
v -0.444508 0.333893 0.995
v -0.444508 0.253893 1.245
v -0.364508 0.253893 1.245
v -0.364508 0.333893 1.245
v -0.444508 0.333893 1.245
v -0.444508 -0.333893 0.995
v -0.364508 -0.333893 0.995
v -0.364508 -0.253893 0.995
v -0.444508 -0.253893 0.995
v -0.444508 -0.333893 1.245
v -0.364508 -0.333893 1.245
v -0.364508 -0.253893 1.245
v -0.444508 -0.253893 1.245
v 0.114508 -0.515528 0.995
v 0.194508 -0.515528 0.995
v 0.194508 -0.435528 0.995
v 0.114508 -0.435528 0.995
v 0.114508 -0.515528 1.245
v 0.194508 -0.515528 1.245
v 0.194508 -0.435528 1.245
v 0.114508 -0.435528 1.245
f 9 8 7 6 5 4 3 2 1
f 10 11 12 13 14 15 16 17 18
f 1 2 11 10
f 2 3 12 11
f 3 4 13 12
f 4 5 14 13
f 5 6 15 14
f 6 7 16 15
f 7 8 17 16
f 8 9 18 17
f 9 1 10 18
f 27 26 25 24 23 22 21 20 19
f 28 29 30 31 32 33 34 35 36
f 19 20 29 28
f 20 21 30 29
f 21 22 31 30
f 22 23 32 31
f 23 24 33 32
f 24 25 34 33
f 25 26 35 34
f 26 27 36 35
f 27 19 28 36
f 37 40 39 38
f 41 42 43 44
f 37 38 42 41
f 38 39 43 42
f 39 40 44 43
f 40 37 41 44
f 45 48 47 46
f 49 50 51 52
f 45 46 50 49
f 46 47 51 50
f 47 48 52 51
f 48 45 49 52
f 53 56 55 54
f 57 58 59 60
f 53 54 58 57
f 54 55 59 58
f 55 56 60 59
f 56 53 57 60
f 61 64 63 62
f 65 66 67 68
f 61 62 66 65
f 62 63 67 66
f 63 64 68 67
f 64 61 65 68
f 69 72 71 70
f 73 74 75 76
f 69 70 74 73
f 70 71 75 74
f 71 72 76 75
f 72 69 73 76
