# NARIS procedural blockout; meters; Z up
o NARIS-W04-ENV-WALL-1003
v -1.99 -0.2 0.01
v -1.01 -0.2 0.01
v -1.01 0.2 0.01
v -1.99 0.2 0.01
v -1.99 -0.2 0.49
v -1.01 -0.2 0.49
v -1.01 0.2 0.49
v -1.99 0.2 0.49
v -0.99 -0.2 0.01
v -0.01 -0.2 0.01
v -0.01 0.2 0.01
v -0.99 0.2 0.01
v -0.99 -0.2 0.49
v -0.01 -0.2 0.49
v -0.01 0.2 0.49
v -0.99 0.2 0.49
v 0.01 -0.2 0.01
v 0.99 -0.2 0.01
v 0.99 0.2 0.01
v 0.01 0.2 0.01
v 0.01 -0.2 0.49
v 0.99 -0.2 0.49
v 0.99 0.2 0.49
v 0.01 0.2 0.49
v 1.01 -0.2 0.01
v 1.99 -0.2 0.01
v 1.99 0.2 0.01
v 1.01 0.2 0.01
v 1.01 -0.2 0.49
v 1.99 -0.2 0.49
v 1.99 0.2 0.49
v 1.01 0.2 0.49
v -1.84 -0.2 0.51
v -0.86 -0.2 0.51
v -0.86 0.2 0.51
v -1.84 0.2 0.51
v -1.84 -0.2 0.99
v -0.86 -0.2 0.99
v -0.86 0.2 0.99
v -1.84 0.2 0.99
v -0.84 -0.2 0.51
v 0.14 -0.2 0.51
v 0.14 0.2 0.51
v -0.84 0.2 0.51
v -0.84 -0.2 0.99
v 0.14 -0.2 0.99
v 0.14 0.2 0.99
v -0.84 0.2 0.99
v 0.16 -0.2 0.51
v 1.14 -0.2 0.51
v 1.14 0.2 0.51
v 0.16 0.2 0.51
v 0.16 -0.2 0.99
v 1.14 -0.2 0.99
v 1.14 0.2 0.99
v 0.16 0.2 0.99
v 1.16 -0.2 0.51
v 2.14 -0.2 0.51
v 2.14 0.2 0.51
v 1.16 0.2 0.51
v 1.16 -0.2 0.99
v 2.14 -0.2 0.99
v 2.14 0.2 0.99
v 1.16 0.2 0.99
v -1.99 -0.2 1.01
v -1.01 -0.2 1.01
v -1.01 0.2 1.01
v -1.99 0.2 1.01
v -1.99 -0.2 1.49
v -1.01 -0.2 1.49
v -1.01 0.2 1.49
v -1.99 0.2 1.49
v -0.99 -0.2 1.01
v -0.01 -0.2 1.01
v -0.01 0.2 1.01
v -0.99 0.2 1.01
v -0.99 -0.2 1.49
v -0.01 -0.2 1.49
v -0.01 0.2 1.49
v -0.99 0.2 1.49
v 0.01 -0.2 1.01
v 0.99 -0.2 1.01
v 0.99 0.2 1.01
v 0.01 0.2 1.01
v 0.01 -0.2 1.49
v 0.99 -0.2 1.49
v 0.99 0.2 1.49
v 0.01 0.2 1.49
v 1.01 -0.2 1.01
v 1.99 -0.2 1.01
v 1.99 0.2 1.01
v 1.01 0.2 1.01
v 1.01 -0.2 1.49
v 1.99 -0.2 1.49
v 1.99 0.2 1.49
v 1.01 0.2 1.49
v -1.84 -0.2 1.51
v -0.86 -0.2 1.51
v -0.86 0.2 1.51
v -1.84 0.2 1.51
v -1.84 -0.2 1.99
v -0.86 -0.2 1.99
v -0.86 0.2 1.99
v -1.84 0.2 1.99
v -0.84 -0.2 1.51
v 0.14 -0.2 1.51
v 0.14 0.2 1.51
v -0.84 0.2 1.51
v -0.84 -0.2 1.99
v 0.14 -0.2 1.99
v 0.14 0.2 1.99
v -0.84 0.2 1.99
v 0.16 -0.2 1.51
v 1.14 -0.2 1.51
v 1.14 0.2 1.51
v 0.16 0.2 1.51
v 0.16 -0.2 1.99
v 1.14 -0.2 1.99
v 1.14 0.2 1.99
v 0.16 0.2 1.99
v 1.16 -0.2 1.51
v 2.14 -0.2 1.51
v 2.14 0.2 1.51
v 1.16 0.2 1.51
v 1.16 -0.2 1.99
v 2.14 -0.2 1.99
v 2.14 0.2 1.99
v 1.16 0.2 1.99
v -1.99 -0.2 2.01
v -1.01 -0.2 2.01
v -1.01 0.2 2.01
v -1.99 0.2 2.01
v -1.99 -0.2 2.49
v -1.01 -0.2 2.49
v -1.01 0.2 2.49
v -1.99 0.2 2.49
v -0.99 -0.2 2.01
v -0.01 -0.2 2.01
v -0.01 0.2 2.01
v -0.99 0.2 2.01
v -0.99 -0.2 2.49
v -0.01 -0.2 2.49
v -0.01 0.2 2.49
v -0.99 0.2 2.49
v 0.01 -0.2 2.01
v 0.99 -0.2 2.01
v 0.99 0.2 2.01
v 0.01 0.2 2.01
v 0.01 -0.2 2.49
v 0.99 -0.2 2.49
v 0.99 0.2 2.49
v 0.01 0.2 2.49
v 1.01 -0.2 2.01
v 1.99 -0.2 2.01
v 1.99 0.2 2.01
v 1.01 0.2 2.01
v 1.01 -0.2 2.49
v 1.99 -0.2 2.49
v 1.99 0.2 2.49
v 1.01 0.2 2.49
f 1 4 3 2
f 5 6 7 8
f 1 2 6 5
f 2 3 7 6
f 3 4 8 7
f 4 1 5 8
f 9 12 11 10
f 13 14 15 16
f 9 10 14 13
f 10 11 15 14
f 11 12 16 15
f 12 9 13 16
f 17 20 19 18
f 21 22 23 24
f 17 18 22 21
f 18 19 23 22
f 19 20 24 23
f 20 17 21 24
f 25 28 27 26
f 29 30 31 32
f 25 26 30 29
f 26 27 31 30
f 27 28 32 31
f 28 25 29 32
f 33 36 35 34
f 37 38 39 40
f 33 34 38 37
f 34 35 39 38
f 35 36 40 39
f 36 33 37 40
f 41 44 43 42
f 45 46 47 48
f 41 42 46 45
f 42 43 47 46
f 43 44 48 47
f 44 41 45 48
f 49 52 51 50
f 53 54 55 56
f 49 50 54 53
f 50 51 55 54
f 51 52 56 55
f 52 49 53 56
f 57 60 59 58
f 61 62 63 64
f 57 58 62 61
f 58 59 63 62
f 59 60 64 63
f 60 57 61 64
f 65 68 67 66
f 69 70 71 72
f 65 66 70 69
f 66 67 71 70
f 67 68 72 71
f 68 65 69 72
f 73 76 75 74
f 77 78 79 80
f 73 74 78 77
f 74 75 79 78
f 75 76 80 79
f 76 73 77 80
f 81 84 83 82
f 85 86 87 88
f 81 82 86 85
f 82 83 87 86
f 83 84 88 87
f 84 81 85 88
f 89 92 91 90
f 93 94 95 96
f 89 90 94 93
f 90 91 95 94
f 91 92 96 95
f 92 89 93 96
f 97 100 99 98
f 101 102 103 104
f 97 98 102 101
f 98 99 103 102
f 99 100 104 103
f 100 97 101 104
f 105 108 107 106
f 109 110 111 112
f 105 106 110 109
f 106 107 111 110
f 107 108 112 111
f 108 105 109 112
f 113 116 115 114
f 117 118 119 120
f 113 114 118 117
f 114 115 119 118
f 115 116 120 119
f 116 113 117 120
f 121 124 123 122
f 125 126 127 128
f 121 122 126 125
f 122 123 127 126
f 123 124 128 127
f 124 121 125 128
f 129 132 131 130
f 133 134 135 136
f 129 130 134 133
f 130 131 135 134
f 131 132 136 135
f 132 129 133 136
f 137 140 139 138
f 141 142 143 144
f 137 138 142 141
f 138 139 143 142
f 139 140 144 143
f 140 137 141 144
f 145 148 147 146
f 149 150 151 152
f 145 146 150 149
f 146 147 151 150
f 147 148 152 151
f 148 145 149 152
f 153 156 155 154
f 157 158 159 160
f 153 154 158 157
f 154 155 159 158
f 155 156 160 159
f 156 153 157 160
