# NARIS procedural blockout; meters; Z up
o NARIS-W04-ENV-ALTAR-1005
v -1.55 -0.35 0.0
v -1.25 -0.35 0.0
v -1.25 0.35 0.0
v -1.55 0.35 0.0
v -1.55 -0.35 0.8
v -1.25 -0.35 0.8
v -1.25 0.35 0.8
v -1.55 0.35 0.8
v 1.25 -0.35 0.0
v 1.55 -0.35 0.0
v 1.55 0.35 0.0
v 1.25 0.35 0.0
v 1.25 -0.35 0.8
v 1.55 -0.35 0.8
v 1.55 0.35 0.8
v 1.25 0.35 0.8
v -2.0 -0.5 0.8
v 2.0 -0.5 0.8
v 2.0 0.5 0.8
v -2.0 0.5 0.8
v -2.0 -0.5 1.0
v 2.0 -0.5 1.0
v 2.0 0.5 1.0
v -2.0 0.5 1.0
v 0.3 0.0 1
v 0.252376 0.162192 1
v 0.124625 0.27289 1
v -0.042694 0.296946 1
v -0.196458 0.226725 1
v -0.287848 0.08452 1
v -0.287848 -0.08452 1
v -0.196458 -0.226725 1
v -0.042694 -0.296946 1
v 0.124625 -0.27289 1
v 0.252376 -0.162192 1
v 0.1 0.0 1.35
v 0.084125 0.054064 1.35
v 0.041542 0.090963 1.35
v -0.014231 0.098982 1.35
v -0.065486 0.075575 1.35
v -0.095949 0.028173 1.35
v -0.095949 -0.028173 1.35
v -0.065486 -0.075575 1.35
v -0.014231 -0.098982 1.35
v 0.041542 -0.090963 1.35
v 0.084125 -0.054064 1.35
f 1 4 3 2
f 5 6 7 8
f 1 2 6 5
f 2 3 7 6
f 3 4 8 7
f 4 1 5 8
f 9 12 11 10
f 13 14 15 16
f 9 10 14 13
f 10 11 15 14
f 11 12 16 15
f 12 9 13 16
f 17 20 19 18
f 21 22 23 24
f 17 18 22 21
f 18 19 23 22
f 19 20 24 23
f 20 17 21 24
f 35 34 33 32 31 30 29 28 27 26 25
f 36 37 38 39 40 41 42 43 44 45 46
f 25 26 37 36
f 26 27 38 37
f 27 28 39 38
f 28 29 40 39
f 29 30 41 40
f 30 31 42 41
f 31 32 43 42
f 32 33 44 43
f 33 34 45 44
f 34 35 46 45
f 35 25 36 46
