# NARIS procedural blockout; meters; Z up
o NARIS-W04-ENV-ALTAR-1003
v -1.27 -0.35 0.0
v -0.97 -0.35 0.0
v -0.97 0.35 0.0
v -1.27 0.35 0.0
v -1.27 -0.35 0.8
v -0.97 -0.35 0.8
v -0.97 0.35 0.8
v -1.27 0.35 0.8
v 0.97 -0.35 0.0
v 1.27 -0.35 0.0
v 1.27 0.35 0.0
v 0.97 0.35 0.0
v 0.97 -0.35 0.8
v 1.27 -0.35 0.8
v 1.27 0.35 0.8
v 0.97 0.35 0.8
v -1.6 -0.5 0.8
v 1.6 -0.5 0.8
v 1.6 0.5 0.8
v -1.6 0.5 0.8
v -1.6 -0.5 1.0
v 1.6 -0.5 1.0
v 1.6 0.5 1.0
v -1.6 0.5 1.0
v 0.3 0.0 1
v 0.229813 0.192836 1
v 0.052094 0.295442 1
v -0.15 0.259808 1
v -0.281908 0.102606 1
v -0.281908 -0.102606 1
v -0.15 -0.259808 1
v 0.052094 -0.295442 1
v 0.229813 -0.192836 1
v 0.1 0.0 1.35
v 0.076604 0.064279 1.35
v 0.017365 0.098481 1.35
v -0.05 0.086603 1.35
v -0.093969 0.034202 1.35
v -0.093969 -0.034202 1.35
v -0.05 -0.086603 1.35
v 0.017365 -0.098481 1.35
v 0.076604 -0.064279 1.35
f 1 4 3 2
f 5 6 7 8
f 1 2 6 5
f 2 3 7 6
f 3 4 8 7
f 4 1 5 8
f 9 12 11 10
f 13 14 15 16
f 9 10 14 13
f 10 11 15 14
f 11 12 16 15
f 12 9 13 16
f 17 20 19 18
f 21 22 23 24
f 17 18 22 21
f 18 19 23 22
f 19 20 24 23
f 20 17 21 24
f 33 32 31 30 29 28 27 26 25
f 34 35 36 37 38 39 40 41 42
f 25 26 35 34
f 26 27 36 35
f 27 28 37 36
f 28 29 38 37
f 29 30 39 38
f 30 31 40 39
f 31 32 41 40
f 32 33 42 41
f 33 25 34 42
