# NARIS procedural blockout; meters; Z up
o NARIS-W04-ENV-PILLAR-1003
v -0.6 -0.6 0.0
v 0.6 -0.6 0.0
v 0.6 0.6 0.0
v -0.6 0.6 0.0
v -0.6 -0.6 0.3
v 0.6 -0.6 0.3
v 0.6 0.6 0.3
v -0.6 0.6 0.3
v 0.51 0.0 0.3
v 0.429039 0.275727 0.3
v 0.211862 0.463912 0.3
v -0.072581 0.504809 0.3
v -0.333979 0.385432 0.3
v -0.489341 0.143684 0.3
v -0.489341 -0.143684 0.3
v -0.333979 -0.385432 0.3
v -0.072581 -0.504809 0.3
v 0.211862 -0.463912 0.3
v 0.429039 -0.275727 0.3
v 0.51 0.0 3.35
v 0.429039 0.275727 3.35
v 0.211862 0.463912 3.35
v -0.072581 0.504809 3.35
v -0.333979 0.385432 3.35
v -0.489341 0.143684 3.35
v -0.489341 -0.143684 3.35
v -0.333979 -0.385432 3.35
v -0.072581 -0.504809 3.35
v 0.211862 -0.463912 3.35
v 0.429039 -0.275727 3.35
v -0.6 -0.6 3.35
v 0.6 -0.6 3.35
v 0.6 0.6 3.35
v -0.6 0.6 3.35
v -0.6 -0.6 3.55
v 0.6 -0.6 3.55
v 0.6 0.6 3.55
v -0.6 0.6 3.55
f 1 4 3 2
f 5 6 7 8
f 1 2 6 5
f 2 3 7 6
f 3 4 8 7
f 4 1 5 8
f 19 18 17 16 15 14 13 12 11 10 9
f 20 21 22 23 24 25 26 27 28 29 30
f 9 10 21 20
f 10 11 22 21
f 11 12 23 22
f 12 13 24 23
f 13 14 25 24
f 14 15 26 25
f 15 16 27 26
f 16 17 28 27
f 17 18 29 28
f 18 19 30 29
f 19 9 20 30
f 31 34 33 32
f 35 36 37 38
f 31 32 36 35
f 32 33 37 36
f 33 34 38 37
f 34 31 35 38
