# NARIS procedural blockout; meters; Z up
o NARIS-W04-ENV-BRAZIER-1002
v 0.4 0.0 0
v 0.323607 0.235114 0
v 0.123607 0.380423 0
v -0.123607 0.380423 0
v -0.323607 0.235114 0
v -0.4 0.0 0
v -0.323607 -0.235114 0
v -0.123607 -0.380423 0
v 0.123607 -0.380423 0
v 0.323607 -0.235114 0
v 0.18 0.0 0.7
v 0.145623 0.105801 0.7
v 0.055623 0.17119 0.7
v -0.055623 0.17119 0.7
v -0.145623 0.105801 0.7
v -0.18 0.0 0.7
v -0.145623 -0.105801 0.7
v -0.055623 -0.17119 0.7
v 0.055623 -0.17119 0.7
v 0.145623 -0.105801 0.7
v 0.18 0.0 0.7
v 0.145623 0.105801 0.7
v 0.055623 0.17119 0.7
v -0.055623 0.17119 0.7
v -0.145623 0.105801 0.7
v -0.18 0.0 0.7
v -0.145623 -0.105801 0.7
v -0.055623 -0.17119 0.7
v 0.055623 -0.17119 0.7
v 0.145623 -0.105801 0.7
v 0.5 0.0 1.0
v 0.404508 0.293893 1.0
v 0.154508 0.475528 1.0
v -0.154508 0.475528 1.0
v -0.404508 0.293893 1.0
v -0.5 0.0 1.0
v -0.404508 -0.293893 1.0
v -0.154508 -0.475528 1.0
v 0.154508 -0.475528 1.0
v 0.404508 -0.293893 1.0
v 0.46 -0.04 0.995
v 0.54 -0.04 0.995
v 0.54 0.04 0.995
v 0.46 0.04 0.995
v 0.46 -0.04 1.245
v 0.54 -0.04 1.245
v 0.54 0.04 1.245
v 0.46 0.04 1.245
v 0.21 0.393013 0.995
v 0.29 0.393013 0.995
v 0.29 0.473013 0.995
v 0.21 0.473013 0.995
v 0.21 0.393013 1.245
v 0.29 0.393013 1.245
v 0.29 0.473013 1.245
v 0.21 0.473013 1.245
v -0.29 0.393013 0.995
v -0.21 0.393013 0.995
v -0.21 0.473013 0.995
v -0.29 0.473013 0.995
v -0.29 0.393013 1.245
v -0.21 0.393013 1.245
v -0.21 0.473013 1.245
v -0.29 0.473013 1.245
v -0.54 -0.04 0.995
v -0.46 -0.04 0.995
v -0.46 0.04 0.995
v -0.54 0.04 0.995
v -0.54 -0.04 1.245
v -0.46 -0.04 1.245
v -0.46 0.04 1.245
v -0.54 0.04 1.245
v -0.29 -0.473013 0.995
v -0.21 -0.473013 0.995
v -0.21 -0.393013 0.995
v -0.29 -0.393013 0.995
v -0.29 -0.473013 1.245
v -0.21 -0.473013 1.245
v -0.21 -0.393013 1.245
v -0.29 -0.393013 1.245
v 0.21 -0.473013 0.995
v 0.29 -0.473013 0.995
v 0.29 -0.393013 0.995
v 0.21 -0.393013 0.995
v 0.21 -0.473013 1.245
v 0.29 -0.473013 1.245
v 0.29 -0.393013 1.245
v 0.21 -0.393013 1.245
f 10 9 8 7 6 5 4 3 2 1
f 11 12 13 14 15 16 17 18 19 20
f 1 2 12 11
f 2 3 13 12
f 3 4 14 13
f 4 5 15 14
f 5 6 16 15
f 6 7 17 16
f 7 8 18 17
f 8 9 19 18
f 9 10 20 19
f 10 1 11 20
f 30 29 28 27 26 25 24 23 22 21
f 31 32 33 34 35 36 37 38 39 40
f 21 22 32 31
f 22 23 33 32
f 23 24 34 33
f 24 25 35 34
f 25 26 36 35
f 26 27 37 36
f 27 28 38 37
f 28 29 39 38
f 29 30 40 39
f 30 21 31 40
f 41 44 43 42
f 45 46 47 48
f 41 42 46 45
f 42 43 47 46
f 43 44 48 47
f 44 41 45 48
f 49 52 51 50
f 53 54 55 56
f 49 50 54 53
f 50 51 55 54
f 51 52 56 55
f 52 49 53 56
f 57 60 59 58
f 61 62 63 64
f 57 58 62 61
f 58 59 63 62
f 59 60 64 63
f 60 57 61 64
f 65 68 67 66
f 69 70 71 72
f 65 66 70 69
f 66 67 71 70
f 67 68 72 71
f 68 65 69 72
f 73 76 75 74
f 77 78 79 80
f 73 74 78 77
f 74 75 79 78
f 75 76 80 79
f 76 73 77 80
f 81 84 83 82
f 85 86 87 88
f 81 82 86 85
f 82 83 87 86
f 83 84 88 87
f 84 81 85 88
