# NARIS procedural blockout; meters; Z up
o NARIS-W04-ENV-STUMP-1004
v 1.044 0.0 0
v 0.878269 0.564429 0
v 0.433693 0.949656 0
v -0.148577 1.033374 0
v -0.683675 0.789003 0
v -1.001711 0.294129 0
v -1.001711 -0.294129 0
v -0.683675 -0.789003 0
v -0.148577 -1.033374 0
v 0.433693 -0.949656 0
v 0.878269 -0.564429 0
v 0.58 0.0 1.0
v 0.487927 0.313572 1.0
v 0.240941 0.527587 1.0
v -0.082543 0.574096 1.0
v -0.379819 0.438335 1.0
v -0.556506 0.163405 1.0
v -0.556506 -0.163405 1.0
v -0.379819 -0.438335 1.0
v -0.082543 -0.574096 1.0
v 0.240941 -0.527587 1.0
v 0.487927 -0.313572 1.0
f 11 10 9 8 7 6 5 4 3 2 1
f 12 13 14 15 16 17 18 19 20 21 22
f 1 2 13 12
f 2 3 14 13
f 3 4 15 14
f 4 5 16 15
f 5 6 17 16
f 6 7 18 17
f 7 8 19 18
f 8 9 20 19
f 9 10 21 20
f 10 11 22 21
f 11 1 12 22
