# NARIS procedural blockout; meters; Z up
o NARIS-W04-ENV-BRAZIER-1004
v 0.4 0.0 0
v 0.34641 0.2 0
v 0.2 0.34641 0
v 0.0 0.4 0
v -0.2 0.34641 0
v -0.34641 0.2 0
v -0.4 0.0 0
v -0.34641 -0.2 0
v -0.2 -0.34641 0
v -0.0 -0.4 0
v 0.2 -0.34641 0
v 0.34641 -0.2 0
v 0.18 0.0 0.7
v 0.155885 0.09 0.7
v 0.09 0.155885 0.7
v 0.0 0.18 0.7
v -0.09 0.155885 0.7
v -0.155885 0.09 0.7
v -0.18 0.0 0.7
v -0.155885 -0.09 0.7
v -0.09 -0.155885 0.7
v -0.0 -0.18 0.7
v 0.09 -0.155885 0.7
v 0.155885 -0.09 0.7
v 0.18 0.0 0.7
v 0.155885 0.09 0.7
v 0.09 0.155885 0.7
v 0.0 0.18 0.7
v -0.09 0.155885 0.7
v -0.155885 0.09 0.7
v -0.18 0.0 0.7
v -0.155885 -0.09 0.7
v -0.09 -0.155885 0.7
v -0.0 -0.18 0.7
v 0.09 -0.155885 0.7
v 0.155885 -0.09 0.7
v 0.5 0.0 1.0
v 0.433013 0.25 1.0
v 0.25 0.433013 1.0
v 0.0 0.5 1.0
v -0.25 0.433013 1.0
v -0.433013 0.25 1.0
v -0.5 0.0 1.0
v -0.433013 -0.25 1.0
v -0.25 -0.433013 1.0
v -0.0 -0.5 1.0
v 0.25 -0.433013 1.0
v 0.433013 -0.25 1.0
v 0.46 -0.04 0.995
v 0.54 -0.04 0.995
v 0.54 0.04 0.995
v 0.46 0.04 0.995
v 0.46 -0.04 1.245
v 0.54 -0.04 1.245
v 0.54 0.04 1.245
v 0.46 0.04 1.245
v 0.313553 0.313553 0.995
v 0.393553 0.313553 0.995
v 0.393553 0.393553 0.995
v 0.313553 0.393553 0.995
v 0.313553 0.313553 1.245
v 0.393553 0.313553 1.245
v 0.393553 0.393553 1.245
v 0.313553 0.393553 1.245
v -0.04 0.46 0.995
v 0.04 0.46 0.995
v 0.04 0.54 0.995
v -0.04 0.54 0.995
v -0.04 0.46 1.245
v 0.04 0.46 1.245
v 0.04 0.54 1.245
v -0.04 0.54 1.245
v -0.393553 0.313553 0.995
v -0.313553 0.313553 0.995
v -0.313553 0.393553 0.995
v -0.393553 0.393553 0.995
v -0.393553 0.313553 1.245
v -0.313553 0.313553 1.245
v -0.313553 0.393553 1.245
v -0.393553 0.393553 1.245
v -0.54 -0.04 0.995
v -0.46 -0.04 0.995
v -0.46 0.04 0.995
v -0.54 0.04 0.995
v -0.54 -0.04 1.245
v -0.46 -0.04 1.245
v -0.46 0.04 1.245
v -0.54 0.04 1.245
v -0.393553 -0.393553 0.995
v -0.313553 -0.393553 0.995
v -0.313553 -0.313553 0.995
v -0.393553 -0.313553 0.995
v -0.393553 -0.393553 1.245
v -0.313553 -0.393553 1.245
v -0.313553 -0.313553 1.245
v -0.393553 -0.313553 1.245
v -0.04 -0.54 0.995
v 0.04 -0.54 0.995
v 0.04 -0.46 0.995
v -0.04 -0.46 0.995
v -0.04 -0.54 1.245
v 0.04 -0.54 1.245
v 0.04 -0.46 1.245
v -0.04 -0.46 1.245
v 0.313553 -0.393553 0.995
v 0.393553 -0.393553 0.995
v 0.393553 -0.313553 0.995
v 0.313553 -0.313553 0.995
v 0.313553 -0.393553 1.245
v 0.393553 -0.393553 1.245
v 0.393553 -0.313553 1.245
v 0.313553 -0.313553 1.245
f 12 11 10 9 8 7 6 5 4 3 2 1
f 13 14 15 16 17 18 19 20 21 22 23 24
f 1 2 14 13
f 2 3 15 14
f 3 4 16 15
f 4 5 17 16
f 5 6 18 17
f 6 7 19 18
f 7 8 20 19
f 8 9 21 20
f 9 10 22 21
f 10 11 23 22
f 11 12 24 23
f 12 1 13 24
f 36 35 34 33 32 31 30 29 28 27 26 25
f 37 38 39 40 41 42 43 44 45 46 47 48
f 25 26 38 37
f 26 27 39 38
f 27 28 40 39
f 28 29 41 40
f 29 30 42 41
f 30 31 43 42
f 31 32 44 43
f 32 33 45 44
f 33 34 46 45
f 34 35 47 46
f 35 36 48 47
f 36 25 37 48
f 49 52 51 50
f 53 54 55 56
f 49 50 54 53
f 50 51 55 54
f 51 52 56 55
f 52 49 53 56
f 57 60 59 58
f 61 62 63 64
f 57 58 62 61
f 58 59 63 62
f 59 60 64 63
f 60 57 61 64
f 65 68 67 66
f 69 70 71 72
f 65 66 70 69
f 66 67 71 70
f 67 68 72 71
f 68 65 69 72
f 73 76 75 74
f 77 78 79 80
f 73 74 78 77
f 74 75 79 78
f 75 76 80 79
f 76 73 77 80
f 81 84 83 82
f 85 86 87 88
f 81 82 86 85
f 82 83 87 86
f 83 84 88 87
f 84 81 85 88
f 89 92 91 90
f 93 94 95 96
f 89 90 94 93
f 90 91 95 94
f 91 92 96 95
f 92 89 93 96
f 97 100 99 98
f 101 102 103 104
f 97 98 102 101
f 98 99 103 102
f 99 100 104 103
f 100 97 101 104
f 105 108 107 106
f 109 110 111 112
f 105 106 110 109
f 106 107 111 110
f 107 108 112 111
f 108 105 109 112
