# NARIS procedural blockout; meters; Z up
o NARIS-W04-ENV-PILLAR-1002
v -0.6 -0.6 0.0
v 0.6 -0.6 0.0
v 0.6 0.6 0.0
v -0.6 0.6 0.0
v -0.6 -0.6 0.3
v 0.6 -0.6 0.3
v 0.6 0.6 0.3
v -0.6 0.6 0.3
v 0.44 0.0 0.3
v 0.355967 0.258626 0.3
v 0.135967 0.418465 0.3
v -0.135967 0.418465 0.3
v -0.355967 0.258626 0.3
v -0.44 0.0 0.3
v -0.355967 -0.258626 0.3
v -0.135967 -0.418465 0.3
v 0.135967 -0.418465 0.3
v 0.355967 -0.258626 0.3
v 0.44 0.0 3.0
v 0.355967 0.258626 3.0
v 0.135967 0.418465 3.0
v -0.135967 0.418465 3.0
v -0.355967 0.258626 3.0
v -0.44 0.0 3.0
v -0.355967 -0.258626 3.0
v -0.135967 -0.418465 3.0
v 0.135967 -0.418465 3.0
v 0.355967 -0.258626 3.0
v -0.6 -0.6 3.0
v 0.6 -0.6 3.0
v 0.6 0.6 3.0
v -0.6 0.6 3.0
v -0.6 -0.6 3.2
v 0.6 -0.6 3.2
v 0.6 0.6 3.2
v -0.6 0.6 3.2
f 1 4 3 2
f 5 6 7 8
f 1 2 6 5
f 2 3 7 6
f 3 4 8 7
f 4 1 5 8
f 18 17 16 15 14 13 12 11 10 9
f 19 20 21 22 23 24 25 26 27 28
f 9 10 20 19
f 10 11 21 20
f 11 12 22 21
f 12 13 23 22
f 13 14 24 23
f 14 15 25 24
f 15 16 26 25
f 16 17 27 26
f 17 18 28 27
f 18 9 19 28
f 29 32 31 30
f 33 34 35 36
f 29 30 34 33
f 30 31 35 34
f 31 32 36 35
f 32 29 33 36
