# NARIS procedural blockout; meters; Z up
o NARIS-W04-ENV-CRYSTAL-1003
v 0.51 0.0 0
v 0.360624 0.360624 0
v 0.0 0.51 0
v -0.360624 0.360624 0
v -0.51 0.0 0
v -0.360624 -0.360624 0
v -0.0 -0.51 0
v 0.360624 -0.360624 0
v 0.408 0.0 2.135
v 0.2885 0.2885 2.135
v 0.0 0.408 2.135
v -0.2885 0.2885 2.135
v -0.408 0.0 2.135
v -0.2885 -0.2885 2.135
v -0.0 -0.408 2.135
v 0.2885 -0.2885 2.135
v 0.408 0.0 2.135
v 0.2885 0.2885 2.135
v 0.0 0.408 2.135
v -0.2885 0.2885 2.135
v -0.408 0.0 2.135
v -0.2885 -0.2885 2.135
v -0.0 -0.408 2.135
v 0.2885 -0.2885 2.135
v 0.015 0.0 3.05
v 0.010607 0.010607 3.05
v 0.0 0.015 3.05
v -0.010607 0.010607 3.05
v -0.015 0.0 3.05
v -0.010607 -0.010607 3.05
v -0.0 -0.015 3.05
v 0.010607 -0.010607 3.05
f 8 7 6 5 4 3 2 1
f 9 10 11 12 13 14 15 16
f 1 2 10 9
f 2 3 11 10
f 3 4 12 11
f 4 5 13 12
f 5 6 14 13
f 6 7 15 14
f 7 8 16 15
f 8 1 9 16
f 24 23 22 21 20 19 18 17
f 25 26 27 28 29 30 31 32
f 17 18 26 25
f 18 19 27 26
f 19 20 28 27
f 20 21 29 28
f 21 22 30 29
f 22 23 31 30
f 23 24 32 31
f 24 17 25 32
