# NARIS procedural blockout; meters; Z up
o NARIS-W04-ENV-TOWER-1002
v 1.4 0.0 0
v 1.132624 0.822899 0
v 0.432624 1.331479 0
v -0.432624 1.331479 0
v -1.132624 0.822899 0
v -1.4 0.0 0
v -1.132624 -0.822899 0
v -0.432624 -1.331479 0
v 0.432624 -1.331479 0
v 1.132624 -0.822899 0
v 1.4 0.0 2.7
v 1.132624 0.822899 2.7
v 0.432624 1.331479 2.7
v -0.432624 1.331479 2.7
v -1.132624 0.822899 2.7
v -1.4 0.0 2.7
v -1.132624 -0.822899 2.7
v -0.432624 -1.331479 2.7
v 0.432624 -1.331479 2.7
v 1.132624 -0.822899 2.7
v 1.225 -0.175 2.7
v 1.575 -0.175 2.7
v 1.575 0.175 2.7
v 1.225 0.175 2.7
v 1.225 -0.175 3.1
v 1.575 -0.175 3.1
v 1.575 0.175 3.1
v 1.225 0.175 3.1
v 0.525 1.037436 2.7
v 0.875 1.037436 2.7
v 0.875 1.387436 2.7
v 0.525 1.387436 2.7
v 0.525 1.037436 3.1
v 0.875 1.037436 3.1
v 0.875 1.387436 3.1
v 0.525 1.387436 3.1
v -0.875 1.037436 2.7
v -0.525 1.037436 2.7
v -0.525 1.387436 2.7
v -0.875 1.387436 2.7
v -0.875 1.037436 3.1
v -0.525 1.037436 3.1
v -0.525 1.387436 3.1
v -0.875 1.387436 3.1
v -1.575 -0.175 2.7
v -1.225 -0.175 2.7
v -1.225 0.175 2.7
v -1.575 0.175 2.7
v -1.575 -0.175 3.1
v -1.225 -0.175 3.1
v -1.225 0.175 3.1
v -1.575 0.175 3.1
v -0.875 -1.387436 2.7
v -0.525 -1.387436 2.7
v -0.525 -1.037436 2.7
v -0.875 -1.037436 2.7
v -0.875 -1.387436 3.1
v -0.525 -1.387436 3.1
v -0.525 -1.037436 3.1
v -0.875 -1.037436 3.1
v 0.525 -1.387436 2.7
v 0.875 -1.387436 2.7
v 0.875 -1.037436 2.7
v 0.525 -1.037436 2.7
v 0.525 -1.387436 3.1
v 0.875 -1.387436 3.1
v 0.875 -1.037436 3.1
v 0.525 -1.037436 3.1
f 10 9 8 7 6 5 4 3 2 1
f 11 12 13 14 15 16 17 18 19 20
f 1 2 12 11
f 2 3 13 12
f 3 4 14 13
f 4 5 15 14
f 5 6 16 15
f 6 7 17 16
f 7 8 18 17
f 8 9 19 18
f 9 10 20 19
f 10 1 11 20
f 21 24 23 22
f 25 26 27 28
f 21 22 26 25
f 22 23 27 26
f 23 24 28 27
f 24 21 25 28
f 29 32 31 30
f 33 34 35 36
f 29 30 34 33
f 30 31 35 34
f 31 32 36 35
f 32 29 33 36
f 37 40 39 38
f 41 42 43 44
f 37 38 42 41
f 38 39 43 42
f 39 40 44 43
f 40 37 41 44
f 45 48 47 46
f 49 50 51 52
f 45 46 50 49
f 46 47 51 50
f 47 48 52 51
f 48 45 49 52
f 53 56 55 54
f 57 58 59 60
f 53 54 58 57
f 54 55 59 58
f 55 56 60 59
f 56 53 57 60
f 61 64 63 62
f 65 66 67 68
f 61 62 66 65
f 62 63 67 66
f 63 64 68 67
f 64 61 65 68
