# NARIS procedural blockout; meters; Z up
o NARIS-W04-ENV-CRYSTAL-1005
v 0.65 0.0 0
v 0.525861 0.38206 0
v 0.200861 0.618187 0
v -0.200861 0.618187 0
v -0.525861 0.38206 0
v -0.65 0.0 0
v -0.525861 -0.38206 0
v -0.200861 -0.618187 0
v 0.200861 -0.618187 0
v 0.525861 -0.38206 0
v 0.52 0.0 2.625
v 0.420689 0.305648 2.625
v 0.160689 0.494549 2.625
v -0.160689 0.494549 2.625
v -0.420689 0.305648 2.625
v -0.52 0.0 2.625
v -0.420689 -0.305648 2.625
v -0.160689 -0.494549 2.625
v 0.160689 -0.494549 2.625
v 0.420689 -0.305648 2.625
v 0.52 0.0 2.625
v 0.420689 0.305648 2.625
v 0.160689 0.494549 2.625
v -0.160689 0.494549 2.625
v -0.420689 0.305648 2.625
v -0.52 0.0 2.625
v -0.420689 -0.305648 2.625
v -0.160689 -0.494549 2.625
v 0.160689 -0.494549 2.625
v 0.420689 -0.305648 2.625
v 0.015 0.0 3.75
v 0.012135 0.008817 3.75
v 0.004635 0.014266 3.75
v -0.004635 0.014266 3.75
v -0.012135 0.008817 3.75
v -0.015 0.0 3.75
v -0.012135 -0.008817 3.75
v -0.004635 -0.014266 3.75
v 0.004635 -0.014266 3.75
v 0.012135 -0.008817 3.75
f 10 9 8 7 6 5 4 3 2 1
f 11 12 13 14 15 16 17 18 19 20
f 1 2 12 11
f 2 3 13 12
f 3 4 14 13
f 4 5 15 14
f 5 6 16 15
f 6 7 17 16
f 7 8 18 17
f 8 9 19 18
f 9 10 20 19
f 10 1 11 20
f 30 29 28 27 26 25 24 23 22 21
f 31 32 33 34 35 36 37 38 39 40
f 21 22 32 31
f 22 23 33 32
f 23 24 34 33
f 24 25 35 34
f 25 26 36 35
f 26 27 37 36
f 27 28 38 37
f 28 29 39 38
f 29 30 40 39
f 30 21 31 40
